<svg xmlns="http://www.w3.org/2000/svg" xmlns:xlink="http://www.w3.org/1999/xlink" width="500" zoomAndPan="magnify" viewBox="0 0 375 374.999991" height="500" preserveAspectRatio="xMidYMid meet" version="1.0"><defs><clipPath id="937d99600b"><path d="M 64 0 L 303 0 L 303 374.921875 L 64 374.921875 Z M 64 0 " clip-rule="nonzero"/></clipPath></defs><g clip-path="url(#937d99600b)"><path fill="#e92026" d="M 186.699219 -0.0273438 C 185.613281 -0.0546875 184.492188 -0.0664062 183.375 -0.0664062 C 182.265625 -0.0664062 181.15625 -0.0546875 180.046875 -0.0273438 C 92.046875 2.210938 37.671875 97.246094 78.582031 175.191406 L 110.035156 235.144531 L 183.375 374.921875 L 209.171875 325.742188 C 198.628906 306.152344 188.054688 286.5625 177.496094 266.96875 C 161.363281 237.042969 145.234375 207.113281 129.101562 177.210938 C 120.90625 162.015625 113.09375 146.519531 110.957031 129.140625 C 105.800781 87.226562 141.546875 49.910156 183.085938 49.75 C 223.820312 49.589844 256.871094 82.535156 256.871094 123.210938 C 256.871094 163.789062 223.953125 196.675781 183.375 196.675781 C 182.035156 196.675781 180.710938 196.640625 179.382812 196.574219 L 228.292969 289.339844 L 256.734375 235.144531 L 288.160156 175.191406 C 329.078125 97.246094 274.703125 2.210938 186.695312 -0.0273438 " fill-opacity="1" fill-rule="nonzero"/></g></svg>